<svg xmlns="http://www.w3.org/2000/svg" aria-hidden="true" style="position:absolute;width:0;height:0;overflow:hidden"><defs><symbol id="icon-client" viewBox="0 0 32 32"><path d="M16 16a8 8 0 1 0 0-16 8 8 0 0 0 0 16zm0 4c-5.34 0-16 2.68-16 8v2c0 1.1.9 2 2 2h28a2 2 0 0 0 2-2v-2c0-5.32-10.66-8-16-8z"/></symbol><symbol id="icon-handset" viewBox="0 0 32 32"><path d="m27.42 20.85-4.2-.48c-1.01-.12-2 .23-2.71.94l-3.05 3.05a24.89 24.89 0 0 1-10.9-10.9l3.06-3.06a3.3 3.3 0 0 0 .94-2.72l-.48-4.17A3.31 3.31 0 0 0 6.8.6H3.93A3.28 3.28 0 0 0 .63 4 28.1 28.1 0 0 0 26.9 30.3a3.28 3.28 0 0 0 3.43-3.3v-2.87a3.28 3.28 0 0 0-2.91-3.27z"/></symbol><symbol id="icon-envelope-dark" viewBox="0 0 43 32"><path d="M37.33 0h-32a4 4 0 0 0-3.98 4l-.02 24c0 2.2 1.8 4 4 4h32c2.2 0 4-1.8 4-4V4c0-2.2-1.8-4-4-4zm-.8 8.5L22.4 17.34c-.64.4-1.48.4-2.12 0L6.13 8.5a1.7 1.7 0 1 1 1.8-2.88L21.33 14l13.4-8.38a1.7 1.7 0 1 1 1.8 2.88z"/></symbol><symbol id="icon-checkbox" viewBox="0 0 40 32"><path d="M37.9 3.23a2.68 2.68 0 0 0-3.8 0L14.24 23.12l-8.35-8.37a2.71 2.71 0 0 0-3.85.06 2.71 2.71 0 0 0 .06 3.86L12.34 28.9a2.68 2.68 0 0 0 3.8 0L37.88 7.15a2.66 2.66 0 0 0 0-3.92z"/></symbol><symbol id="icon-close" viewBox="0 0 32 32"><path d="M19.52 16 30.27 5.28a2.5 2.5 0 1 0-3.54-3.55L16 12.48 5.28 1.73a2.5 2.5 0 1 0-3.55 3.55L12.48 16 1.73 26.72a2.5 2.5 0 0 0 .8 4.1 2.5 2.5 0 0 0 2.75-.55L16 19.52l10.72 10.75a2.51 2.51 0 1 0 3.55-3.54L19.52 16z"/></symbol><symbol id="icon-leaf" viewBox="0 0 32 32"><path d="M20.48 28.44c-.34.12-.79.12-1.12.23.33-.11.78-.23 1.12-.23zM29.76 19.5c-.1.46-.22.8-.33 1.14.1-.34.22-.8.33-1.14zM29.32 20.76l-.67 1.38c.22-.35.44-.8.67-1.38zM30.1 18c0 .35-.11.7-.23 1.04.12-.34.12-.69.23-1.03zM30.21 16.06c0 .45 0 1.03-.11 1.49.11-.46.11-1.04.11-1.5zM19.25 28.56c-.45.11-.9.11-1.35.11.45 0 .9 0 1.35-.11zM29.88 19.04c0 .11-.12.23-.12.34 0-.11 0-.23.11-.34zM30.1 17.55c0 .11 0 .23-.11.45.1-.22.1-.34.1-.45zM20.59 28.33c-.11 0-.11.11 0 0-.11.11-.11 0 0 0zM29.32 20.64c0 .12 0 .12-.11.23.1-.11.1-.23.1-.23z"/><path d="M27.3 24.2c-3.58-4.36-8.61-9.18-12.2-12.5a1.05 1.05 0 0 1-.33-.8c0-.69.45-1.15 1.12-1.15a2 2 0 0 1 .78.23h.11c5.04 4.7 9.07 8.72 11.98 12.16l.67-1.38s0-.11.1-.23c.12-.34.23-.8.35-1.14 0-.12.1-.23.1-.35.12-.34.12-.69.23-1.03 0-.11 0-.23.11-.46-.11-.46-.11-1.04-.11-1.5 0-8.94-9.17-13.64-17.9-13.76C4.36 2.2 0 0 0 0s1.12 11.7 3.47 18.24c2.68 7.45 7.6 10.43 14.43 10.43.45 0 .9 0 1.35-.11h.1c.34 0 .79-.11 1.13-.23h.1c.79-.23 1.57-.46 2.36-.8.67-.35 1.34-.69 2.01-1.15 2.24 2.64 3.7 4.7 3.7 5.62H32c-.11-1.72-2.01-4.7-4.7-7.8z"/></symbol><symbol id="icon-applepay" viewBox="0 0 32 32"><path d="M5.85 11.04c-.37.45-.97.8-1.57.76-.08-.61.21-1.25.56-1.65a2.35 2.35 0 0 1 1.56-.82c.06.64-.18 1.25-.55 1.72zm.54.88c-.86-.05-1.61.5-2.02.5-.42 0-1.05-.48-1.74-.46-.9 0-1.72.52-2.18 1.34-.94 1.62-.24 4.04.66 5.37.44.65.98 1.37 1.68 1.35.66-.03.92-.44 1.72-.44.8 0 1.04.44 1.74.43.72-.02 1.18-.66 1.62-1.32.51-.75.72-1.47.73-1.5-.01-.02-1.4-.56-1.41-2.18-.02-1.35 1.09-2 1.14-2.03a2.47 2.47 0 0 0-1.94-1.06zm5.02-1.83v9.85h1.52v-3.37h2.09c1.91 0 3.26-1.33 3.26-3.25s-1.32-3.23-3.21-3.23h-3.66zm1.52 1.29h1.74c1.31 0 2.06.7 2.06 1.95s-.75 1.96-2.07 1.96h-1.74v-3.92zm8.1 8.63a2.5 2.5 0 0 0 2.24-1.26h.03v1.19h1.4v-4.9c0-1.43-1.12-2.35-2.85-2.35-1.61 0-2.8.93-2.84 2.21h1.36c.11-.6.67-1 1.43-1 .93 0 1.45.43 1.45 1.23v.55l-1.9.11c-1.75.11-2.7.84-2.7 2.1 0 1.28.98 2.12 2.39 2.12zm.41-1.17c-.8 0-1.32-.39-1.32-.99 0-.62.5-.98 1.44-1.04l1.68-.1v.55c0 .93-.77 1.58-1.8 1.58zm5.13 3.78c1.48 0 2.17-.57 2.77-2.3L32 12.8h-1.54l-1.78 5.82h-.03l-1.78-5.82h-1.58l2.56 7.17-.14.44c-.23.74-.6 1.02-1.27 1.02l-.45-.02v1.18c.1.02.47.04.58.04z"/></symbol><symbol id="icon-envelope" viewBox="0 0 32 32"><path d="M29 4H3a3 3 0 0 0-3 3v18a3 3 0 0 0 3 3h26a3 3 0 0 0 3-3V7a3 3 0 0 0-3-3zm0 2a1 1 0 0 1 .38.08L16 17.68 2.62 6.08A1 1 0 0 1 3 6h26zm0 20H3a1 1 0 0 1-1-1V8.19l13.35 11.57a1 1 0 0 0 1.3 0L30 8.19V25a1 1 0 0 1-1 1z"/></symbol><symbol id="icon-facebook" viewBox="0 0 32 32"><path d="M21.33 5.31h2.92V.23C23.75.15 22.01 0 19.99 0c-4.2 0-7.1 2.65-7.1 7.52V12H8.26v5.69h4.65V32h5.7V17.69h4.46l.7-5.69H18.6V8.08c0-1.64.45-2.77 2.74-2.77z"/></symbol><symbol id="icon-googlepay" viewBox="0 0 32 32"><path d="m32 13.33-4.18 9.34h-1.29l1.55-3.27-2.75-6.07h1.36L28.68 18h.03l1.93-4.66H32zm-17.36 2.9V20h-1.3v-9.33H16.88c.83 0 1.6.3 2.17.8.6.5.95 1.22.94 1.98v.03c0 .78-.37 1.49-.94 1.94-.61.54-1.36.8-2.25.8h-2.17zm0-4.41v3.26h2.2c.49 0 .96-.17 1.3-.49.33-.3.52-.7.52-1.14s-.19-.84-.52-1.14c-.33-.3-.76-.5-1.24-.5h-2.26zm7.99 1.51c.84 0 1.5.24 1.98.7.48.46.72 1.1.72 1.9v3.87h-1.08v-.87h-.05A2.14 2.14 0 0 1 22.34 20c-.67 0-1.22-.2-1.67-.61-.41-.37-.67-.9-.67-1.5v-.04c0-.64.24-1.16.7-1.54s1.1-.57 1.9-.58c.66 0 1.22.13 1.65.39v-.28c0-.41-.18-.78-.46-1.03a1.56 1.56 0 0 0-1.08-.43h-.02c-.63 0-1.13.28-1.5.83l-1-.65a2.74 2.74 0 0 1 2.44-1.23zm-1.46 4.55c0 .32.14.6.37.77.25.2.56.3.88.3.48 0 .93-.2 1.27-.55.35-.32.57-.77.57-1.28-.36-.3-.85-.44-1.48-.44-.46 0-.84.11-1.15.34-.3.24-.46.52-.46.86zM5.44 10.67h.07c1.38 0 2.63.52 3.57 1.39l-1.55 1.52c-.53-.5-1.25-.8-2.04-.8h-.05c-1.41.01-2.6.92-3.05 2.18v.02a3.08 3.08 0 0 0 0 2.06v-.02a3.26 3.26 0 0 0 3.05 2.2c.74 0 1.36-.18 1.85-.5.58-.38.97-.96 1.09-1.63H5.44v-2.05h5.13c.06.36.1.72.1 1.08 0 1.63-.6 3-1.62 3.93a5.27 5.27 0 0 1-3.61 1.28h-.02a5.45 5.45 0 0 1-4.83-2.9l-.01-.03a5.17 5.17 0 0 1 .01-4.82l-.01.03a5.46 5.46 0 0 1 4.84-2.94h.02z"/></symbol><symbol id="icon-instagram" viewBox="0 0 32 32"><path d="M31.97 9.4a11.7 11.7 0 0 0-.74-3.87 7.8 7.8 0 0 0-1.86-2.84A7.87 7.87 0 0 0 26.54.84C25.52.45 24.36.17 22.66.1 20.95.02 20.4 0 16.06 0s-4.89.02-6.6.1C7.76.16 6.6.43 5.58.83a7.8 7.8 0 0 0-2.84 1.85A7.87 7.87 0 0 0 .9 5.52C.5 6.54.23 7.7.16 9.4c-.08 1.71-.1 2.26-.1 6.6s.02 4.9.09 6.6c.08 1.7.35 2.87.74 3.88a7.9 7.9 0 0 0 1.85 2.84c.8.81 1.77 1.44 2.84 1.84 1.02.4 2.18.67 3.88.75 1.7.07 2.25.09 6.6.09s4.88-.02 6.59-.1a11.7 11.7 0 0 0 3.88-.74 8.18 8.18 0 0 0 4.68-4.68c.4-1.02.67-2.18.75-3.88.07-1.7.09-2.25.09-6.6s0-4.89-.08-6.6zm-2.88 13.07a8.76 8.76 0 0 1-.55 2.97 5.31 5.31 0 0 1-3.04 3.04c-.56.22-1.41.48-2.97.55-1.69.07-2.2.1-6.46.1s-4.79-.02-6.47-.1a8.76 8.76 0 0 1-2.97-.55 4.93 4.93 0 0 1-1.84-1.2 4.97 4.97 0 0 1-1.19-1.83 8.81 8.81 0 0 1-.55-2.97c-.07-1.69-.1-2.2-.1-6.47s.03-4.78.1-6.46c.07-1.56.33-2.4.55-2.97.26-.7.66-1.32 1.2-1.84a4.97 4.97 0 0 1 1.84-1.19A8.81 8.81 0 0 1 9.6 3c1.69-.07 2.2-.1 6.46-.1 4.28 0 4.78.03 6.47.1 1.56.07 2.4.33 2.96.55.7.26 1.33.66 1.84 1.2.53.51.94 1.14 1.2 1.83.22.57.48 1.42.55 2.97.07 1.69.1 2.2.1 6.46s-.03 4.77-.1 6.46z"/><path d="M16.06 7.78a8.22 8.22 0 1 0 0 16.45 8.22 8.22 0 0 0 0-16.45zm0 13.55a5.33 5.33 0 1 1 0-10.66 5.33 5.33 0 0 1 0 10.67zM26.52 7.46a1.92 1.92 0 1 1-3.83 0 1.92 1.92 0 0 1 3.83 0z"/></symbol><symbol id="icon-linkedin" viewBox="0 0 32 32"><path d="M32 32V20.26c0-5.74-1.24-10.16-7.95-10.16-3.23 0-5.39 1.77-6.27 3.45h-.1v-2.92h-6.36V32h6.63V21.42c0-2.79.52-5.48 3.97-5.48 3.4 0 3.45 3.18 3.45 5.66V32H32zM.53 10.64h6.63V32H.53V10.64zM3.84 0C1.72 0 0 1.72 0 3.84s1.72 3.88 3.84 3.88A3.88 3.88 0 0 0 7.7 3.84 3.85 3.85 0 0 0 3.84 0z"/></symbol><symbol id="icon-npm" viewBox="0 0 32 32"><path d="M0 9.78v10.67h8.89v1.77H16v-1.77h16V9.78H0zm8.89 8.88H7.1v-5.33H5.33v5.33H1.78v-7.1h7.1v7.1zm5.33 0v1.79h-3.55v-8.9h7.11v7.12h-3.56zm16 0h-1.77v-5.33h-1.78v5.33h-1.78v-5.33h-1.77v5.33h-3.57v-7.1h10.67v7.1zm-16-5.33H16v3.56h-1.78v-3.56z"/></symbol><symbol id="icon-playstation" viewBox="0 0 32 32"><path d="M11.98 3.46v23.4l5.22 1.68V8.92c0-.92.4-1.54 1.06-1.33.85.25 1.01 1.09 1.01 2.01v7.84c3.26 1.59 5.82 0 5.82-4.2 0-4.32-1.5-6.24-5.92-7.78a62.7 62.7 0 0 0-7.19-2zm6.2 21.66 8.4-3.04c.96-.34 1.1-.83.33-1.09a5.65 5.65 0 0 0-3.14.17l-5.6 2v-3.18l.31-.12s1.6-.56 3.88-.82c2.27-.24 5.05.04 7.25.88 2.47.8 2.72 1.97 2.1 2.77s-2.16 1.38-2.16 1.38L18.16 28.2v-3.06l.03-.03zM2.42 24.8c-2.53-.73-2.95-2.22-1.8-3.1 1.07-.77 2.88-1.4 2.88-1.4l7.48-2.68v3.08l-5.36 1.97c-.94.36-1.1.84-.32 1.1.78.26 2.18.2 3.12-.16l2.59-.94v2.76l-.52.1c-2.59.44-5.33.26-8.05-.64l-.02-.09z"/></symbol><symbol id="icon-rails" viewBox="0 0 32 32"><path d="M27.85 21.08v1.55h2.64c.54 0 1.47-.42 1.5-1.6v-.6c0-1-.77-1.59-1.5-1.59h-1.32v-.72h2.61v-1.56h-2.5c-.65 0-1.52.57-1.52 1.62v.54c0 1.06.86 1.6 1.52 1.6h1.24v.75l-2.67.01zm-14.16-.38s1.41-.12 1.41-2.06-1.71-2.12-1.71-2.12H10.3v6.11h1.55v-1.47l1.35 1.47h2.29l-1.8-1.93zm-.6-1.25h-1.24v-1.4h1.25s.35.14.35.7-.36.7-.36.7zm5.84-2.89h-1.57c-1.13 0-1.5 1.08-1.5 1.6v4.47h1.57v-1.07h1.48v1.07h1.53v-4.47c0-1.3-1.12-1.6-1.5-1.6zm-.02 3.27h-1.49v-1.48s0-.34.5-.34h.54c.43 0 .44.34.44.34v1.48zm2.25-3.27h1.64v6.07h-1.64v-6.07zm3.94 4.5v-4.5h-1.63v6.07h3.83v-1.57h-2.2zM.57 22.63h6.38s-1.22-5.9 2.82-8.3c.88-.45 3.69-2.15 8.28 1.45l.28-.23s-4.2-4.45-8.88-3.95c-2.35.23-5.25 2.5-6.94 5.5S.57 22.63.57 22.63zm0 0h6.38s-1.22-5.9 2.82-8.3c.88-.45 3.69-2.15 8.28 1.45l.28-.23s-4.2-4.45-8.88-3.95c-2.35.23-5.25 2.5-6.94 5.5S.57 22.63.57 22.63zm0 0h6.38s-1.22-5.9 2.82-8.3c.88-.45 3.69-2.15 8.28 1.45l.28-.23s-4.2-4.45-8.88-3.95c-2.36.23-5.26 2.5-6.95 5.5S.57 22.63.57 22.63zm13.3-10.55.03-.57a3.8 3.8 0 0 0-.78-.3l-.04.56.79.31zm-.77 1.82-.03.54c.26 0 .53.04.8.1l.03-.53c-.28-.06-.54-.1-.8-.11zm-3-2.68h.09l-.16-.52c-.25 0-.51.02-.78.05l.16.5c.23-.02.46-.03.7-.03zm.4 3.16.18.59c.24-.12.47-.22.7-.3l-.17-.57c-.28.09-.51.18-.71.28zm-3.67-2.26-.37-.59-.63.37.38.6c.2-.13.4-.26.62-.37zm1.65 3.86.4.62c.13-.22.3-.41.47-.61l-.36-.58a4.6 4.6 0 0 0-.5.57zm-1.17 2.76.66.55c.03-.33.09-.67.17-1l-.58-.5c-.1.32-.18.64-.25.95zm-3.54-4.07-.57-.53-.6.64.62.57c.17-.23.36-.47.55-.68zM1.33 18.5l-.93-.36-.4 1.03.93.36c.1-.3.27-.71.4-1.03zm5.86 2.42c.02.45.06.82.1 1.08l.97.37a12 12 0 0 1-.2-1.12l-.87-.33z"/></symbol><symbol id="icon-smartphone" viewBox="0 0 32 32"><path d="M23 0H9a3 3 0 0 0-3 3v26a3 3 0 0 0 3 3h14a3 3 0 0 0 3-3V3a3 3 0 0 0-3-3zM9 2h14a1 1 0 0 1 1 1v21H8V3a1 1 0 0 1 1-1zm14 28H9a1 1 0 0 1-1-1v-3h16v3a1 1 0 0 1-1 1z"/></symbol><symbol id="icon-twitter" viewBox="0 0 32 32"><path d="M32 6.08c-1.19.52-2.46.87-3.78 1.03a6.52 6.52 0 0 0 2.89-3.62 13.11 13.11 0 0 1-4.16 1.59 6.57 6.57 0 0 0-11.2 5.98A18.57 18.57 0 0 1 2.23 4.2a6.57 6.57 0 0 0 2.02 8.77 6.48 6.48 0 0 1-2.97-.81v.07a6.59 6.59 0 0 0 5.26 6.44 6.55 6.55 0 0 1-2.97.1 6.62 6.62 0 0 0 6.13 4.58 13.18 13.18 0 0 1-9.7 2.7A18.47 18.47 0 0 0 10.06 29c12.08 0 18.68-10 18.68-18.67 0-.29-.01-.57-.03-.85 1.3-.92 2.4-2.07 3.29-3.4z"/></symbol><symbol id="icon-ubereats" viewBox="0 0 32 32"><path d="M0 3.67v6.78c0 2.56 1.79 4.26 4.1 4.26a3.9 3.9 0 0 0 2.87-1.2v1.01H8.6V3.67H6.96v6.69c0 1.72-1.16 2.88-2.67 2.88-1.52 0-2.66-1.13-2.66-2.88v-6.7H0zm9.8 0v10.85h1.53v-1a3.93 3.93 0 0 0 2.82 1.19h.05a4.12 4.12 0 0 0 4.12-4.12v-.02a4.12 4.12 0 0 0-4.12-4.13h-.03c-1.1 0-2.09.45-2.84 1.17V3.67H9.8zm13.21 2.78a4.05 4.05 0 0 0-4.06 4.11c0 2.36 1.82 4.1 4.2 4.1 1.44 0 2.62-.6 3.4-1.66l-1.12-.84a2.73 2.73 0 0 1-2.28 1.17c-1.34 0-2.4-.97-2.62-2.25h6.43v-.52c0-2.35-1.67-4.1-3.95-4.1zm8.26.1c-.87 0-1.5.4-1.88 1.04V6.6h-1.56v7.91h1.57V10c0-1.2.75-2 1.76-2h.65V6.55h-.54zm-8.3 1.26c1.18 0 2.15.82 2.42 2.03h-4.83a2.5 2.5 0 0 1 2.41-2.03zm-8.9.03c1.48 0 2.7 1.2 2.7 2.73a2.75 2.75 0 0 1-2.7 2.76h-.02a2.72 2.72 0 0 1-2.72-2.72v-.04a2.72 2.72 0 0 1 2.74-2.73zM0 17.28v10.85h7.63v-1.85H2.07v-2.7h5.41v-1.8H2.07v-2.65h5.56v-1.85H0zm19.41.56v2.28h-1.54v1.81h1.54v4.27c0 1.08.76 1.93 2.14 1.93h2.18v-1.81h-1.52c-.46 0-.76-.21-.76-.64v-3.75h2.28v-1.81h-2.28v-2.28h-2.04zm-6.98 2.08a4.2 4.2 0 1 0 2.56 7.5v.71H17v-8.01H15v.72a3.93 3.93 0 0 0-2.54-.92h-.02zm15.62 0c-2.12 0-3.6.87-3.6 2.56 0 1.16.82 1.92 2.58 2.3l1.93.45c.76.14.96.34.96.66 0 .5-.59.82-1.5.82-1.17 0-1.84-.27-2.1-1.15h-2.04c.3 1.67 1.53 2.77 4.07 2.77 2.32 0 3.65-1.1 3.65-2.65 0-1.1-.77-1.9-2.41-2.25l-1.72-.36c-1-.2-1.32-.4-1.32-.75 0-.48.48-.77 1.37-.77.96 0 1.67.26 1.87 1.12h2.02c-.1-1.64-1.32-2.75-3.76-2.75zM12.6 21.68c1.35 0 2.43 1.08 2.43 2.45s-1.08 2.44-2.43 2.44h-.01a2.43 2.43 0 0 1-2.43-2.42v-.02c0-1.37 1.1-2.45 2.44-2.45z"/></symbol></defs></svg>