<svg width="16" height="16" viewBox="0 0 16 16" fill="none" xmlns="http://www.w3.org/2000/svg">
<path d="M9.76255 8L15.1375 2.6375C15.3729 2.40212 15.5052 2.08288 15.5052 1.75C15.5052 1.41713 15.3729 1.09788 15.1375 0.862503C14.9022 0.627123 14.5829 0.494888 14.25 0.494888C13.9172 0.494888 13.5979 0.627123 13.3625 0.862503L8.00005 6.2375L2.63755 0.862503C2.40217 0.627123 2.08292 0.494888 1.75005 0.494888C1.41717 0.494888 1.09793 0.627123 0.862546 0.862503C0.627166 1.09788 0.494931 1.41713 0.494931 1.75C0.494931 2.08288 0.627166 2.40212 0.862546 2.6375L6.23755 8L0.862546 13.3625C0.745385 13.4787 0.652393 13.617 0.588932 13.7693C0.525471 13.9216 0.492798 14.085 0.492798 14.25C0.492798 14.415 0.525471 14.5784 0.588932 14.7307C0.652393 14.883 0.745385 15.0213 0.862546 15.1375C0.978749 15.2547 1.117 15.3477 1.26932 15.4111C1.42165 15.4746 1.58503 15.5073 1.75005 15.5073C1.91506 15.5073 2.07844 15.4746 2.23077 15.4111C2.38309 15.3477 2.52134 15.2547 2.63755 15.1375L8.00005 9.7625L13.3625 15.1375C13.4788 15.2547 13.617 15.3477 13.7693 15.4111C13.9216 15.4746 14.085 15.5073 14.25 15.5073C14.4151 15.5073 14.5784 15.4746 14.7308 15.4111C14.8831 15.3477 15.0213 15.2547 15.1375 15.1375C15.2547 15.0213 15.3477 14.883 15.4112 14.7307C15.4746 14.5784 15.5073 14.415 15.5073 14.25C15.5073 14.085 15.4746 13.9216 15.4112 13.7693C15.3477 13.617 15.2547 13.4787 15.1375 13.3625L9.76255 8Z" fill="black"/>
</svg>
