<svg width="14" height="14" viewBox="0 0 14 14" fill="none" xmlns="http://www.w3.org/2000/svg">
<path d="M11.996 9.12244L10.1579 8.91257C9.71641 8.86191 9.28221 9.01389 8.97102 9.32507L7.63945 10.6566C5.59144 9.61454 3.91251 7.94283 2.87041 5.88758L4.20922 4.54876C4.5204 4.23758 4.67237 3.80337 4.62171 3.36192L4.41185 1.53824C4.325 0.807323 3.70988 0.257324 2.97173 0.257324H1.71976C0.902004 0.257324 0.221746 0.937586 0.272403 1.75535C0.655953 7.9356 5.59868 12.8711 11.7717 13.2547C12.5894 13.3053 13.2697 12.6251 13.2697 11.8073V10.5553C13.2769 9.82441 12.7269 9.20928 11.996 9.12244V9.12244Z" fill="#212121"/>
</svg>
