<svg width="24" height="24" viewBox="0 0 24 24" fill="none" xmlns="http://www.w3.org/2000/svg">
<path d="M15.357 21.3324C15.1052 21.4179 14.7701 21.4179 14.5183 21.505C14.7701 21.4179 15.1052 21.3324 15.357 21.3324Z" fill="white"/>
<path d="M22.3226 14.6232C22.2392 14.9667 22.1542 15.2247 22.0708 15.4828C22.1542 15.2247 22.2392 14.8812 22.3226 14.6232Z" fill="white"/>
<path d="M21.9876 15.5698C21.8193 15.9133 21.6525 16.2585 21.4841 16.602C21.6509 16.344 21.8193 15.9988 21.9876 15.5698Z" fill="white"/>
<path d="M22.5744 13.5055C22.5744 13.7635 22.491 14.0216 22.406 14.2796C22.491 14.0216 22.491 13.7635 22.5744 13.5055Z" fill="white"/>
<path d="M22.6579 12.0426C22.6579 12.3861 22.6579 12.8167 22.5745 13.1603C22.6579 12.8167 22.6579 12.3861 22.6579 12.0426Z" fill="white"/>
<path d="M14.435 21.4178C14.0983 21.5049 13.7631 21.5049 13.428 21.5049C13.7631 21.5049 14.0983 21.5049 14.435 21.4178Z" fill="white"/>
<path d="M22.4061 14.2797C22.4061 14.3651 22.3228 14.4522 22.3228 14.5377C22.3228 14.4506 22.3228 14.3651 22.4061 14.2797Z" fill="white"/>
<path d="M22.5744 13.1603C22.5744 13.2458 22.5744 13.3328 22.491 13.5038C22.5744 13.3328 22.5744 13.2474 22.5744 13.1603Z" fill="white"/>
<path d="M15.4419 21.2468C15.3569 21.2468 15.3569 21.3323 15.4419 21.2468C15.3569 21.3323 15.3569 21.2468 15.4419 21.2468Z" fill="white"/>
<path d="M21.9874 15.4828C21.9874 15.5683 21.9874 15.5683 21.9041 15.6554C21.9874 15.5699 21.9874 15.4828 21.9874 15.4828Z" fill="white"/>
<path d="M20.477 18.1503C17.7911 14.8812 14.0148 11.2685 11.3305 8.77517C11.1621 8.6026 11.0787 8.43165 11.0787 8.17361C11.0787 7.65752 11.4139 7.31401 11.9174 7.31401C12.0857 7.31401 12.3375 7.39948 12.5043 7.48658H12.5877C16.364 11.0138 19.385 14.0232 21.5674 16.6037C21.7358 16.2602 21.9026 15.915 22.0709 15.5715C22.0709 15.5715 22.0709 15.486 22.1543 15.3989C22.2377 15.1409 22.3227 14.7974 22.4061 14.5393C22.4061 14.4538 22.4895 14.3667 22.4895 14.2813C22.5729 14.0232 22.5729 13.7652 22.6578 13.5071C22.6578 13.4217 22.6578 13.3346 22.7412 13.1636C22.6578 12.8169 22.6578 12.3862 22.6578 12.0427C22.6578 5.33352 15.7771 1.80633 9.2315 1.72086C3.2728 1.63538 0 0 0 0C0 0 0.838642 8.77359 2.60092 13.6765C4.61652 19.268 8.30787 21.505 13.4279 21.505C13.7631 21.505 14.0998 21.505 14.4349 21.4195H14.5183C14.7701 21.4195 15.1052 21.334 15.357 21.247H15.4404C16.0273 21.0744 16.6158 20.9034 17.2027 20.6454C17.7062 20.3873 18.2097 20.1293 18.7132 19.7858C20.3921 21.7647 21.4825 23.313 21.4825 24H24C23.9166 22.7082 22.491 20.4728 20.477 18.1504L20.477 18.1503Z" fill="white"/>
</svg>
