<svg width="60" height="60" viewBox="0 0 60 60" fill="none" xmlns="http://www.w3.org/2000/svg">
<g clip-path="url(#clip0_501234_395)">
<path d="M52.2113 39.5268V42.435H57.165C58.1794 42.435 59.9231 41.6475 59.9831 39.4462V38.3212C59.9831 36.4406 58.5281 35.3325 57.165 35.3325H54.6956V33.9825H59.5894V31.0575H54.8925C53.6813 31.0575 52.0594 32.1187 52.0594 34.095V35.1075C52.0594 37.0837 53.6663 38.0962 54.8925 38.0962C58.3013 38.1131 54.075 38.0962 57.225 38.0962V39.51L52.2113 39.5268ZM25.6669 38.82C25.6669 38.82 28.3181 38.5781 28.3181 34.9462C28.3181 31.3143 25.1063 30.9768 25.1063 30.9768H19.3181V42.435H22.2263V39.6712L24.7406 42.435H29.0438L25.6669 38.82ZM24.5456 36.4725H22.2281V33.8531H24.5606C24.5606 33.8531 25.2113 34.11 25.2113 35.1543C25.2113 36.1987 24.5438 36.4725 24.5438 36.4725H24.5456ZM35.4994 31.0575H32.5444C30.4388 31.0575 29.7263 33.0825 29.7263 34.0462V42.435H32.6813V40.4268H35.4544V42.435H38.3175V34.0462C38.3175 31.6031 36.2269 31.0575 35.4994 31.0575ZM35.4544 37.1793H32.6663V34.3987C32.6663 34.3987 32.6663 33.7725 33.5906 33.7725H34.605C35.4225 33.7725 35.4375 34.3987 35.4375 34.3987V37.1793H35.4544ZM39.6675 31.0575H42.7425V42.4368H39.6675V31.0575ZM47.0606 39.495V31.0575H44.0006V42.4368H51.1969V39.495H47.0606ZM1.06125 42.435H13.0313C13.0313 42.435 10.7438 31.3612 18.3188 26.8781C19.9706 26.0268 25.2281 22.845 33.8344 29.595C34.1063 29.3531 34.365 29.1618 34.365 29.1618C34.365 29.1618 26.4863 20.82 17.7131 21.7537C13.305 22.1718 7.88063 26.43 4.69875 32.055C1.51688 37.68 1.06313 42.4368 1.06313 42.4368L1.06125 42.435ZM1.06125 42.435H13.0313C13.0313 42.435 10.7438 31.3612 18.3188 26.8781C19.9706 26.0268 25.2281 22.845 33.8344 29.595C34.1063 29.3531 34.365 29.1618 34.365 29.1618C34.365 29.1618 26.4863 20.82 17.7131 21.7537C13.305 22.1718 7.88063 26.43 4.69875 32.055C1.51688 37.68 1.06313 42.4368 1.06313 42.4368L1.06125 42.435ZM1.06125 42.435H13.0313C13.0313 42.435 10.7438 31.3612 18.3188 26.8781C19.9706 26.0268 25.2281 22.845 33.8344 29.595C34.1063 29.3531 34.365 29.1618 34.365 29.1618C34.365 29.1618 26.4863 20.82 17.7131 21.7537C13.2881 22.1718 7.86375 26.43 4.68375 32.055C1.50375 37.68 1.06313 42.4368 1.06313 42.4368L1.06125 42.435ZM26.0006 22.6518L26.0606 21.5756C25.9238 21.495 25.545 21.3018 24.5906 21.0131L24.5306 22.0743C25.0313 22.2506 25.515 22.4437 26.0006 22.6537V22.6518ZM24.5606 26.0587L24.5006 27.0712C25.0013 27.0881 25.5 27.1518 26.0006 27.2643L26.0606 26.2687C25.545 26.1562 25.0463 26.0925 24.5606 26.0606V26.0587ZM18.9544 21.045H19.1063L18.8025 20.0643C18.3319 20.0643 17.8481 20.0962 17.3475 20.16L17.6363 21.1087C18.075 21.06 18.5156 21.045 18.9544 21.045V21.045ZM19.6819 26.9587L20.0306 28.0668C20.4694 27.8418 20.91 27.6487 21.3488 27.5043L21.015 26.4431C20.4994 26.6043 20.0606 26.7806 19.6819 26.9568V26.9587ZM12.8025 22.7325L12.12 21.6243C11.7413 21.8325 11.3475 22.0575 10.9388 22.3162L11.6363 23.4412C12.03 23.1843 12.4088 22.9425 12.8025 22.7343V22.7325ZM15.9094 29.9643L16.6369 31.1212C16.8938 30.72 17.1975 30.3506 17.5313 29.9793L16.8488 28.8862C16.5 29.2237 16.1813 29.5931 15.9094 29.9625V29.9643ZM13.7119 35.1393L14.94 36.1687C15 35.5425 15.1069 34.9143 15.2588 34.2881L14.1675 33.3712C13.9706 33.9656 13.8338 34.56 13.7138 35.1393H13.7119ZM7.07625 27.5043L6 26.5087C5.60625 26.91 5.2275 27.3131 4.87875 27.7143L6.045 28.7756C6.36375 28.3425 6.7125 27.9075 7.07438 27.5062L7.07625 27.5043ZM2.49938 34.6893L0.7575 34.0143C0.470625 34.7062 0.151875 35.5087 0 35.9437L1.74188 36.6187C1.93875 36.0731 2.2575 35.2856 2.49938 34.6893ZM13.485 39.2212C13.515 40.0725 13.5919 40.7643 13.6669 41.2462L15.4856 41.9381C15.3488 41.3118 15.2138 40.605 15.1219 39.8493L13.485 39.2212Z" fill="#757575"/>
</g>
<defs>
<clipPath id="clip0_501234_395">
<rect width="60" height="60" fill="white"/>
</clipPath>
</defs>
</svg>
