<svg width="58" height="62" viewBox="0 0 58 62" fill="none" xmlns="http://www.w3.org/2000/svg">
<g clip-path="url(#clip0_501234_585)">
<path d="M29.0004 21.3149C34.5554 21.3149 39.0452 16.7497 39.0452 11.1396C39.0446 5.52273 34.5554 0.981934 29.0004 0.981934C23.4453 0.981934 18.9556 5.52273 18.9556 11.1396C18.955 16.7497 23.4453 21.3149 29.0004 21.3149Z" fill="#EC3C05"/>
<path d="M46.8911 47.7758C49.6607 45.2778 51.301 42.1754 51.301 38.8143C51.301 30.5538 41.3928 23.8567 29.171 23.8567C29.1131 23.8567 29.057 23.8591 28.9997 23.8597C28.9424 23.8591 28.8863 23.8567 28.8277 23.8567C16.6066 23.8567 6.69838 30.5532 6.69838 38.8143C6.69838 42.176 8.33868 45.2785 11.1083 47.7758C4.3538 49.4386 0 52.0415 0 54.9688C0 59.9915 7.20206 63.9211 28.8284 60.9602C28.8875 60.9693 28.9418 60.9754 29.0003 60.9858C29.0588 60.9754 29.1131 60.9693 29.1717 60.9602C50.7992 63.9211 58.0006 59.9915 58.0006 54.9688C58 52.0415 53.6462 49.4386 46.8911 47.7758ZM44.7441 40.4924C44.6679 40.4882 44.5917 40.4802 44.5154 40.4802C42.3385 40.4802 40.572 42.2462 40.572 44.4239C40.572 46.6003 42.3379 48.3656 44.5154 48.3656C44.5917 48.3656 44.6679 48.3583 44.7441 48.354V52.5551L29.0003 58.0395L13.2577 52.5551V48.354C13.3333 48.3583 13.409 48.3656 13.4858 48.3656C15.6633 48.3656 17.428 46.6003 17.428 44.4239C17.428 42.2462 15.6633 40.4802 13.4858 40.4802C13.409 40.4802 13.3333 40.4882 13.2577 40.4924V31.5737L29.0003 36.7032L44.7441 31.5737V40.4924Z" fill="black"/>
</g>
<defs>
<clipPath id="clip0_501234_585">
<rect width="58" height="61" fill="white" transform="translate(0 0.981934)"/>
</clipPath>
</defs>
</svg>
